HIERARCHY
ROOT Hips
{
	OFFSET 55.310501 45.591206 43.872097
	CHANNELS 6 Xposition Yposition Zposition Zrotation Xrotation Yrotation
	JOINT Chest
	{
		OFFSET -0.153500 1.163101 7.852402
		CHANNELS 6 Xposition Yposition Zposition Zrotation Xrotation Yrotation
		JOINT Chest2
		{
			OFFSET 0.000000 0.000000 3.343300
			CHANNELS 6 Xposition Yposition Zposition Zrotation Xrotation Yrotation
			JOINT Neck
			{
				OFFSET 0.000000 0.000000 7.785500
				CHANNELS 6 Xposition Yposition Zposition Zrotation Xrotation Yrotation
				JOINT Head
				{
					OFFSET 0.000000 0.000000 2.173901
					CHANNELS 6 Xposition Yposition Zposition Zrotation Xrotation Yrotation
					End Site
					{
						OFFSET 0.000000 0.000000 10.528198
					}
				}
			}
			JOINT LeftCollar
			{
				OFFSET 2.676300 -1.652401 4.938301
				CHANNELS 6 Xposition Yposition Zposition Zrotation Xrotation Yrotation
				JOINT LeftShoulder
				{
					OFFSET 4.299000 0.000000 0.000000
					CHANNELS 6 Xposition Yposition Zposition Zrotation Xrotation Yrotation
					JOINT LeftElbow
					{
						OFFSET 0.000000 0.000000 -10.245102
						CHANNELS 6 Xposition Yposition Zposition Zrotation Xrotation Yrotation
						JOINT LeftWrist
						{
							OFFSET 0.000000 0.000000 -12.703300
							CHANNELS 6 Xposition Yposition Zposition Zrotation Xrotation Yrotation
							End Site
							{
								OFFSET 0.000000 0.000000 -2.173901
							}
						}
					}
				}
			}
			JOINT RightCollar
			{
				OFFSET -2.534599 -1.686401 5.195000
				CHANNELS 6 Xposition Yposition Zposition Zrotation Xrotation Yrotation
				JOINT RightShoulder
				{
					OFFSET -4.144100 0.000000 0.000000
					CHANNELS 6 Xposition Yposition Zposition Zrotation Xrotation Yrotation
					JOINT RightElbow
					{
						OFFSET 0.000000 0.000000 -10.116501
						CHANNELS 6 Xposition Yposition Zposition Zrotation Xrotation Yrotation
						JOINT RightWrist
						{
							OFFSET 0.000000 0.000000 -12.937801
							CHANNELS 6 Xposition Yposition Zposition Zrotation Xrotation Yrotation
							End Site
							{
								OFFSET 0.000000 0.000000 -2.173901
							}
						}
					}
				}
			}
		}
	}
	JOINT LeftHip
	{
		OFFSET 2.175598 0.064499 -2.662899
		CHANNELS 6 Xposition Yposition Zposition Zrotation Xrotation Yrotation
		JOINT LeftKnee
		{
			OFFSET 0.000000 -0.000004 -18.585800
			CHANNELS 6 Xposition Yposition Zposition Zrotation Xrotation Yrotation
			JOINT LeftAnkle
			{
				OFFSET 0.000000 0.000000 -18.979500
				CHANNELS 6 Xposition Yposition Zposition Zrotation Xrotation Yrotation
				End Site
				{
					OFFSET 0.000000 -9.264000 0.000000
				}
			}
		}
	}
	JOINT RightHip
	{
		OFFSET -2.092400 -0.058102 -2.581200
		CHANNELS 6 Xposition Yposition Zposition Zrotation Xrotation Yrotation
		JOINT RightKnee
		{
			OFFSET 0.000000 -0.000004 -18.665001
			CHANNELS 6 Xposition Yposition Zposition Zrotation Xrotation Yrotation
			JOINT RightAnkle
			{
				OFFSET 0.000000 0.000000 -18.566601
				CHANNELS 6 Xposition Yposition Zposition Zrotation Xrotation Yrotation
				End Site
				{
					OFFSET 0.000000 -8.497601 0.000000
				}
			}
		}
	}
}
MOTION
Frames: 5
Frame Time: 0.041667
53.133499 15.902603 36.345100 415.463933 16.762259 1.263875 -0.153503 1.163095 7.852416 -7.492735 27.484662 -2.066100 -0.000000 0.000007 3.343307 1.685092 -12.973388 0.192008 -0.000004 -0.000004 7.785507 -7.190741 8.442506 -0.561341 0.000003 -0.000002 2.173912 -2.915455 -6.125607 -2.280109 2.676293 -1.652401 4.938304 9.867262 -1.008787 -5.426136 4.298999 0.000000 -0.000003 -85.239682 -1.780664 -98.046218 -0.000008 0.000000 -10.245103 180.110654 200.885043 182.008654 -0.000004 0.000009 -12.703289 165.577241 186.874877 186.547096 -2.534602 -1.686405 5.195004 11.647601 18.723218 4.756405 -4.144106 -0.000006 -0.000003 62.854290 -4.118255 117.368345 0.000003 -0.000004 -10.116504 -44.946009 -13.249020 -15.151619 -0.000008 -0.000003 -12.937799 76.736745 -19.904302 -1.137234 2.175591 0.064496 -2.662894 -278.500799 -39.479006 62.599551 -0.000007 0.000004 -18.585804 50.731537 -225.809537 -96.886862 0.000000 -0.000000 -18.979504 384.885558 -4.513313 5.650685 -2.092402 -0.058104 -2.581192 -90.458295 -39.305116 -63.455763 0.000011 -0.000004 -18.665005 -576.860237 40.731116 -90.663426 0.000001 -0.000005 -18.566601 687.820868 -4.995468 -30.527773
53.357803 15.844202 37.696995 416.446852 14.566357 1.411259 -0.153502 1.163098 7.852405 -9.523671 25.403669 -1.739668 -0.000002 0.000003 3.343305 2.136411 -12.640564 0.144337 0.000000 0.000002 7.785505 -7.636158 11.934536 -0.121025 0.000004 0.000003 2.173910 -3.282832 -5.907634 -2.500725 2.676293 -1.652399 4.938301 9.342453 -0.465573 -6.468039 4.299006 0.000007 -0.000005 -82.605954 -0.730280 -101.389917 -0.000012 -0.000005 -10.245109 184.385396 202.045684 182.358674 -0.000011 0.000005 -12.703298 173.383847 193.723030 188.410317 -2.534604 -1.686394 5.195005 11.888167 19.644613 5.936342 -4.144104 -0.000002 -0.000002 60.830525 -5.404982 120.910891 0.000012 0.000002 -10.116505 -51.004229 -13.159905 -16.930833 0.000007 -0.000002 -12.937811 81.331960 -19.920860 0.864211 2.175599 0.064497 -2.662899 -286.443381 -40.815479 53.454850 -0.000003 -0.000002 -18.585810 63.789432 -232.064693 -105.966936 -0.000003 0.000001 -18.979492 379.707838 -1.594379 2.384526 -2.092398 -0.058108 -2.581194 -89.015369 -38.326418 -59.029336 0.000006 -0.000006 -18.664999 -579.777384 43.549320 -87.023474 0.000000 -0.000008 -18.566601 690.826697 0.655482 -29.557217
53.618408 15.775204 39.041695 417.414225 12.440445 1.665423 -0.153491 1.163103 7.852409 -12.144411 23.186795 -1.454475 0.000005 -0.000001 3.343304 2.918186 -11.889109 0.139727 -0.000001 0.000003 7.785500 -8.044420 15.246825 0.556902 -0.000000 -0.000005 2.173904 -3.650285 -5.880875 -2.806336 2.676300 -1.652396 4.938297 8.908691 -0.543766 -9.052686 4.298999 -0.000004 -0.000005 -79.352489 -1.315459 -104.015776 0.000001 0.000000 -10.245115 188.964942 202.830308 182.611992 0.000014 -0.000003 -12.703292 313.467488 171.189266 207.245534 -2.534594 -1.686397 5.195006 11.283582 20.174909 9.192056 -4.144096 0.000000 -0.000002 59.390339 -8.354032 123.689672 0.000008 0.000000 -10.116498 -56.277583 -12.939601 -18.439853 0.000001 0.000007 -12.937807 85.271722 -20.454811 1.058524 2.175600 0.064512 -2.662891 -295.693806 -41.494069 43.480096 -0.000005 -0.000002 -18.585812 81.619183 -237.368089 -118.285844 -0.000004 0.000001 -18.979500 374.526784 1.486332 -0.923751 -2.092393 -0.058102 -2.581194 -88.229214 -37.243119 -55.446700 0.000011 0.000002 -18.665009 -582.854521 46.693769 -83.436785 0.000000 -0.000006 -18.566607 694.259496 7.689173 -29.024175
53.909904 15.703209 40.343895 418.238984 10.360409 2.073434 -0.153494 1.163097 7.852412 -14.838723 21.027282 -1.412657 0.000007 0.000001 3.343297 3.899103 -11.033722 0.165850 -0.000002 0.000015 7.785497 -8.781481 18.321144 1.634879 -0.000005 0.000010 2.173902 -3.931313 -5.928386 -3.147367 2.676302 -1.652393 4.938294 8.342876 -0.569614 -11.500453 4.299011 -0.000001 -0.000004 -75.511266 -2.285759 -106.517695 0.000002 -0.000002 -10.245105 193.337247 203.163130 182.762502 0.000003 -0.000004 -12.703300 325.828628 163.699718 205.304777 -2.534592 -1.686393 5.195004 10.227087 20.639109 11.052201 -4.144106 -0.000006 -0.000002 59.822950 -10.314033 127.836635 0.000003 -0.000006 -10.116498 -60.219988 -11.205444 -17.926665 -0.000004 0.000003 -12.937808 88.130238 -22.584249 1.945030 2.175599 0.064487 -2.662899 -305.229324 -40.979441 33.406711 -0.000002 -0.000008 -18.585800 102.251128 -240.235402 -132.617480 -0.000006 -0.000000 -18.979506 370.072572 4.501913 -3.386562 -2.092402 -0.058103 -2.581200 -87.534024 -36.390845 -52.445601 0.000004 -0.000002 -18.665005 -586.794065 50.350464 -79.620376 0.000000 -0.000002 -18.566597 698.266140 15.691128 -28.843380
54.227303 15.638605 41.575695 418.875776 8.373466 2.600902 -0.153504 1.163113 7.852399 -17.659514 19.008215 -1.551925 0.000008 0.000001 3.343305 5.102398 -9.999406 0.149007 0.000003 -0.000003 7.785500 -9.718125 20.846308 2.993054 -0.000001 0.000005 2.173901 -4.151411 -6.080905 -3.569103 2.676301 -1.652403 4.938303 6.813909 -0.646149 -14.453456 4.299003 0.000004 -0.000008 -69.914663 -3.983128 -108.365261 -0.000004 0.000006 -10.245106 197.578986 202.951094 182.739785 0.000004 -0.000002 -12.703303 324.163729 160.123089 206.653247 -2.534596 -1.686400 5.195001 9.292488 20.854249 13.027227 -4.144106 0.000008 -0.000004 59.900527 -12.437910 132.104232 0.000011 -0.000004 -10.116491 -62.953498 -9.707810 -16.804782 -0.000004 0.000000 -12.937807 89.411746 -24.043231 3.050968 2.175592 0.064495 -2.662901 -314.212280 -39.253237 24.058873 -0.000003 -0.000007 -18.585804 120.823902 -240.541122 -144.716040 0.000001 0.000000 -18.979496 367.190587 7.267095 -5.053067 -2.092405 -0.058095 -2.581192 -86.439063 -36.068781 -49.789111 0.000002 0.000004 -18.665010 -592.194449 54.154118 -75.265618 -0.000002 0.000006 -18.566599 702.809472 23.972185 -29.178073
